<?xml version="1.0" encoding="UTF-8" standalone="no" ?>
<!DOCTYPE svg PUBLIC "-//W3C//DTD SVG 1.1//EN" "http://www.w3.org/Graphics/SVG/1.1/DTD/svg11.dtd">
<svg
    version="1.1"
    xmlns="http://www.w3.org/2000/svg"
    xmlns:xlink="http://www.w3.org/1999/xlink"
    viewBox="0 270 640 640"
    width="1640"
    height="640"
><defs><path
            d="M224.56 289.81L204.87 289.81L175.84 334.22C174.61 307.57 173.92 292.77 173.79 289.81C173.79 289.81 162.03 289.81 160.48 289.81C157.64 289.81 153.7 292.4 151.43 296.66C149.51 299.79 132.07 336.37 126.92 347.18C121.92 347.18 96.96 347.18 52.03 347.18L52.03 350.19L125.5 350.19L136.49 350.19L138.05 347.18L162.43 299.73L167.51 350.19L178.41 350.19L212.77 300.08L212.77 347.18L212.77 350.19L224.56 350.19L605.22 350.19L605.22 347.18L224.56 347.18L224.56 289.81Z"
            id="a1JtH7VHJ"
        /><path d="M565.05 347.19L816.62 347.19L816.62 350.19L565.05 350.19L565.05 347.19Z" id="cc56YRukR" /><path
            d=""
            id="f1VAtrwd2a"
        /><path d="" id="i9jEfGaVtU" /></defs><g><g><g><use
                    xlink:href="#a1JtH7VHJ"
                    opacity="1"
                    fill="#23487e"
                    fill-opacity="1"
                /><g><use
                        xlink:href="#a1JtH7VHJ"
                        opacity="1"
                        fill-opacity="0"
                        stroke="#000000"
                        stroke-width="1"
                        stroke-opacity="0"
                    /></g></g><g><use xlink:href="#cc56YRukR" opacity="1" fill="#23487e" fill-opacity="1" /><g><use
                        xlink:href="#cc56YRukR"
                        opacity="1"
                        fill-opacity="0"
                        stroke="#23487e"
                        stroke-width="0"
                        stroke-opacity="1"
                    /></g></g><g><g><use
                        xlink:href="#f1VAtrwd2a"
                        opacity="1"
                        fill-opacity="0"
                        stroke="#23487e"
                        stroke-width="0"
                        stroke-opacity="1"
                    /></g></g><g><g><use
                        xlink:href="#i9jEfGaVtU"
                        opacity="1"
                        fill-opacity="0"
                        stroke="#23487e"
                        stroke-width="0"
                        stroke-opacity="1"
                    /></g></g></g></g></svg>
