<?xml version="1.0" encoding="utf-8"?>
<!-- Generator: Adobe Illustrator 22.0.1, SVG Export Plug-In . SVG Version: 6.00 Build 0)  -->
<svg version="1.1" id="Layer_1" xmlns="http://www.w3.org/2000/svg" xmlns:xlink="http://www.w3.org/1999/xlink" x="0px" y="0px"
	 viewBox="0 0 2000 1069.9" style="enable-background:new 0 0 2000 1069.9;" xml:space="preserve">
<style type="text/css">
	.st0{fill:none;}
	.st1{fill:#23487E;}
</style>
<rect class="st0" width="2000" height="1069.9"/>
<g>
	<path class="st1" d="M684.9,619.9V440.6h-59.6l-87.9,138.8l-6.2-138.8c0,0-35.6,0-40.3,0c-8.6,0-20.5,8.1-27.4,21.4
		c-5.8,9.8-58.6,124.1-74.2,157.9H162.6v9.4H385h33.3l4.7-9.4l73.8-148.3l15.4,157.7h33l104-156.6v147.2v9.4h35.7h1152.4v-9.4H684.9
		z"/>
	<g>
		<polygon class="st1" points="949.7,561.6 951.2,555.2 924,555.2 913.3,603.3 940.5,603.3 941.9,596.9 922.8,596.9 926.1,582.1 
			943,582.2 944.5,575.7 927.5,575.7 930.7,561.6 		"/>
		<path class="st1" d="M977.9,555.3l-16,0l-10.7,48.1l16,0c15.7,0,28.1-9,31.4-23.8C1001.8,564.7,993.6,555.3,977.9,555.3z
			 M990.3,579.5c-2.4,10.9-10.1,17.4-21.7,17.4l-8,0l7.8-35.2l8,0C988,561.7,992.7,568.5,990.3,579.5z"/>
		<path class="st1" d="M1036.8,561.6c5.9,0,10,2.4,11.5,7.6l9.7,0c-1.7-9.4-9.4-14.5-19.6-14.5c-13.8,0-27.3,10.1-30.5,24.5
			c-3.2,14.5,5.8,24.6,19.6,24.6c10.2,0,20.2-5,26-14.4l-9.7,0c-3.8,5.1-8.9,7.5-14.8,7.5c-9.7,0-15.3-6.9-12.9-17.7
			C1018.5,568.4,1027.1,561.6,1036.8,561.6z"/>
		<path class="st1" d="M1091.8,555.3l-28.3,48.1l8.4,0l5.7-9.8l20.6,0l1.4,9.8l8.5,0l-6.9-48.1L1091.8,555.3z M1081.4,587.2l13-22.3
			l3,22.3L1081.4,587.2z"/>
		<path class="st1" d="M1147.4,555.5l-16.9,0l-10.7,48.1l8.1,0l4.3-19.2l6.1,0l7,19.2l9.6,0l-7.7-19.9c8.7-2,13.2-8.1,14.4-13.7
			C1163.3,562.1,1159.1,555.5,1147.4,555.5z M1153.3,569.9c-1.1,4.8-4.6,8.2-10.9,8.1l-8.9,0l3.6-16.1l8.9,0
			C1152.3,561.9,1154.4,565,1153.3,569.9z"/>
		<polygon class="st1" points="1164.5,603.5 1191.7,603.6 1193.1,597.1 1174,597.1 1177.3,582.4 1194.2,582.4 1195.7,576 
			1178.7,576 1181.9,561.9 1200.9,561.9 1202.3,555.5 1175.2,555.4 		"/>
		<polygon class="st1" points="1314.2,576.3 1291.1,576.3 1295.7,555.6 1287.7,555.6 1277,603.7 1285,603.7 1289.7,582.7 
			1312.8,582.7 1308.1,603.7 1316.2,603.7 1326.9,555.7 1318.8,555.7 		"/>
		<polygon class="st1" points="1339.9,555.7 1329.2,603.7 1337.3,603.8 1348,555.7 		"/>
		<path class="st1" d="M1375.5,555.7l-16.9,0l-10.7,48.1l8.1,0l4.3-19.5l8.9,0c12.8,0,19-7.4,20.5-14.2
			C1391.4,562.2,1387.2,555.7,1375.5,555.7z M1381.4,570.1c-1.1,4.8-4.6,7.8-10.8,7.8l-8.9,0l3.5-15.7l8.9,0
			C1380.4,562.2,1382.5,565.1,1381.4,570.1z"/>
		<path class="st1" d="M1418.6,555.8l-16.9,0l-10.7,48.1l8.1,0l4.3-19.5l8.9,0c12.8,0,19-7.4,20.5-14.2
			C1434.5,562.3,1430.2,555.8,1418.6,555.8z M1424.5,570.1c-1.1,4.8-4.6,7.8-10.8,7.8l-8.9,0l3.5-15.7l8.9,0
			C1423.4,562.2,1425.6,565.1,1424.5,570.1z"/>
		<polygon class="st1" points="1431.9,603.9 1440,603.9 1450.6,555.8 1442.6,555.8 		"/>
		<polygon class="st1" points="1490.3,591.6 1474,555.8 1465.9,555.8 1455.3,603.9 1463.3,603.9 1471.3,568 1487.5,603.9 
			1495.6,603.9 1506.3,555.8 1498.2,555.8 		"/>
		<path class="st1" d="M1547,562.5c5.9,0,10,2.4,11.5,7.3l9.7,0c-1.7-9.4-9.4-14.5-19.6-14.5c-13.8,0-27.3,10.1-30.5,24.5
			c-3.2,14.5,5.8,24.6,19.6,24.6c13.2,0,24.9-9.4,28.9-20.6l1.4-6.2l-27,0l-1.4,6.3l18.4,0c-3,8.1-9.7,13.3-18.6,13.3
			c-9.7,0-15.3-6.9-12.9-17.4C1528.7,569.3,1537.2,562.5,1547,562.5z"/>
		<path class="st1" d="M1622,555.4c-10,0-18,5.2-19.9,13.7c-3.9,17.7,23.8,10.2,21.2,21.8c-0.9,4.1-4.7,7-10.4,7
			c-5.6,0-7.7-3.2-7.2-7.1l-8.6,0c-1.9,8.5,4.5,13.8,14.3,13.8c10.9,0,18.5-6.9,20.1-14.1c3.9-17.6-23.6-10.8-21.2-21.7
			c1-4.6,5.1-6.8,9.8-6.7c5.1,0.1,7.3,3.1,6.8,6.4l8.9,0C1637,560.2,1631.4,555.4,1622,555.4z"/>
		<path class="st1" d="M1685.9,556l-28.3,48.1l8.4,0l5.7-9.8l20.6,0l1.4,9.8l8.5,0l-6.9-48.1L1685.9,556z M1675.5,587.9l13-22.3
			l3,22.3L1675.5,587.9z"/>
		<polygon class="st1" points="868.4,590.7 857.7,545.2 847.2,545.2 834.3,603.2 844,603.2 852.9,563.5 862.2,603.2 868.9,603.2 
			895.8,563.6 887,603.3 896.7,603.3 909.6,545.3 899.2,545.3 		"/>
		<path class="st1" d="M1260.1,544.9c-12.1,0-21.8,6.3-24,16.5c-4.7,21.4,28.7,12.3,25.6,26.3c-1.1,4.9-5.7,8.5-12.5,8.5
			c-6.7,0-9.3-3.9-8.7-8.6l-10.4,0c-2.3,10.3,5.4,16.6,17.3,16.6c13.2,0,22.3-8.3,24.2-17c4.7-21.2-28.5-13.1-25.6-26.1
			c1.2-5.6,6.2-8.3,11.8-8.1c6.1,0.2,8.8,3.8,8.3,7.7l10.7,0C1278.2,550.8,1271.5,544.9,1260.1,544.9z"/>
		<rect x="1637.4" y="596.2" class="st1" width="10" height="6.4"/>
		<rect x="1712" y="596.2" class="st1" width="10" height="6.4"/>
	</g>
</g>
</svg>
