<?xml version="1.0" standalone="no"?>
<!DOCTYPE svg PUBLIC "-//W3C//DTD SVG 20010904//EN"
 "http://www.w3.org/TR/2001/REC-SVG-20010904/DTD/svg10.dtd">
<svg version="1.0" xmlns="http://www.w3.org/2000/svg"
 width="417.000000pt" height="417.000000pt" viewBox="0 0 417.000000 417.000000"
 preserveAspectRatio="xMidYMid meet">
<metadata>
Created by potrace 1.11, written by Peter Selinger 2001-2013
</metadata>
<g transform="translate(0.000000,417.000000) scale(0.100000,-0.100000)"
fill="#000000" stroke="none">
<path d="M1475 3208 c-56 -20 -138 -82 -181 -137 -68 -86 -124 -201 -610
-1251 l-244 -525 -141 -3 c-77 -1 -139 -6 -137 -10 2 -4 10 -24 18 -45 l14
-37 321 0 320 0 370 746 c258 521 371 740 376 727 3 -10 11 -72 18 -138 6 -66
25 -259 41 -430 17 -170 42 -429 56 -575 13 -146 27 -280 30 -297 l5 -33 200
0 200 0 497 748 497 747 3 -747 2 -748 423 0 423 0 14 37 c8 21 16 41 18 45 2
4 -92 9 -210 10 l-213 3 -3 963 -2 962 -339 0 -339 0 -169 -267 c-566 -897
-659 -1043 -663 -1043 -4 0 -14 177 -23 393 -10 215 -23 510 -29 655 l-12 262
-250 -1 c-150 0 -263 -5 -281 -11z"/>
</g>
</svg>
